<svg xmlns="http://www.w3.org/2000/svg" xmlns:xlink="http://www.w3.org/1999/xlink" width="203px" height="38px" viewBox="0 0 203 38" version="1.1">
    <!-- Generator: Sketch 51.1 (57501) - http://www.bohemiancoding.com/sketch -->
    <title>Academy Logo</title>
    <desc>Created with Sketch.</desc>
    <defs/>
    <g id="Symbols" stroke="none" stroke-width="1" fill="none" fill-rule="evenodd">
        <g id="Top-Nav" transform="translate(-115.000000, -31.000000)">
            <g id="Top-Nav-B">
                <g transform="translate(115.000000, 22.000000)">
                    <g id="Top-Nav-Copy-5">
                        <g id="Academy-Logo" transform="translate(0.000000, 9.000000)">
                            <g id="Group">
                                <g transform="translate(48.237624, 0.000000)" fill-rule="nonzero" id="Shape">
                                    <path d="M2.3991111,35.1288889 C2.56456704,35.72 3.06093485,35.9733333 3.64003063,35.9733333 C3.88821454,35.9733333 4.46731032,35.8888889 4.46731032,35.5511111 C4.46731032,35.1288889 3.97094251,35.0444444 3.64003063,34.96 C2.31638313,34.7066667 0.74455172,34.3688889 0.74455172,32.68 C0.74455172,32.0044444 1.0754636,31.3288889 1.65455938,30.9066667 C2.23365516,30.4844444 2.97820688,30.4 3.64003063,30.4 C4.88095017,30.4 6.03914173,30.9066667 6.45278158,32.1733333 L4.71549423,32.68 C4.55003829,32.1733333 4.13639845,32.0044444 3.55730266,32.0044444 C3.30911876,32.0044444 2.89547891,32.0888889 2.89547891,32.4266667 C2.89547891,32.7644444 3.39184673,32.8488889 3.64003063,32.9333333 C4.30185438,33.1022222 4.96367814,33.1866667 5.62550189,33.5244444 C6.28732564,33.8622222 6.61823751,34.5377778 6.61823751,35.2977778 C6.61823751,36.9866667 4.96367814,37.6622222 3.55730266,37.6622222 C2.06819922,37.6622222 0.827279689,37.0711111 0.413639845,35.4666667 L2.3991111,35.1288889 Z" fill="#EC1C24"/>
                                    <path d="M11.9955555,37.4933333 L9.8446283,37.4933333 L9.8446283,30.4 L12.6573792,30.4 C13.319203,30.4 14.0637547,30.4 14.7255785,30.7377778 C15.3874022,31.16 15.7183141,31.8355556 15.7183141,32.5955556 C15.7183141,33.2711111 15.4701302,33.9466667 14.9737624,34.3688889 C14.4773946,34.7911111 13.7328428,34.96 13.0710191,34.96 L11.9955555,34.96 L11.9955555,37.4933333 Z M12.5746513,33.44 C13.0710191,33.44 13.6501149,33.44 13.6501149,32.7644444 C13.6501149,32.1733333 13.1537471,32.0888889 12.6573792,32.0888889 L11.9955555,32.0888889 L11.9955555,33.44 L12.5746513,33.44 Z" fill="#EC1C24"/>
                                    <path d="M25.2320305,34.0311111 C25.2320305,36.0577778 23.991111,37.6622222 21.9229118,37.6622222 C19.8547125,37.6622222 18.613793,36.0577778 18.613793,34.0311111 C18.613793,31.92 19.8547125,30.4 21.9229118,30.4 C24.073839,30.3155556 25.2320305,31.8355556 25.2320305,34.0311111 Z M20.8474482,34.0311111 C20.8474482,34.7066667 20.9301761,36.0577778 21.9229118,36.0577778 C22.9156474,36.0577778 22.9983754,34.7066667 22.9983754,34.0311111 C22.9983754,33.3555556 22.9156474,31.92 21.9229118,31.92 C21.0129041,31.92 20.8474482,33.2711111 20.8474482,34.0311111 Z" fill="#EC1C24"/>
                                    <path d="M32.0984519,37.4933333 L31.1057163,34.7911111 L30.4438926,34.7911111 L30.4438926,37.4933333 L28.2929654,37.4933333 L28.2929654,30.4 L31.850268,30.4 C32.4293638,30.4 33.0911876,30.4844444 33.6702834,30.8222222 C34.2493791,31.16 34.497563,31.8355556 34.497563,32.5111111 C34.497563,33.44 34.0839232,34.0311111 33.2566435,34.3688889 L34.497563,37.4933333 L32.0984519,37.4933333 Z M31.1884443,33.2711111 C31.6848121,33.2711111 32.1811799,33.1866667 32.1811799,32.5955556 C32.1811799,32.3422222 32.0984519,32.0888889 31.850268,32.0044444 C31.6848121,31.92 31.4366282,31.92 31.2711723,31.92 L30.4438926,31.92 L30.4438926,33.2711111 L31.1884443,33.2711111 Z" fill="#EC1C24"/>
                                    <polygon fill="#EC1C24" points="40.5367048 37.4933333 38.4685056 37.4933333 38.4685056 32.0888889 36.9794021 32.0888889 36.9794021 30.4 41.8603523 30.4 41.8603523 32.0888889 40.4539768 32.0888889 40.4539768 37.4933333"/>
                                    <path d="M46.4931185,35.1288889 C46.6585745,35.72 47.1549423,35.9733333 47.7340381,35.9733333 C47.982222,35.9733333 48.5613178,35.8888889 48.5613178,35.5511111 C48.5613178,35.1288889 47.982222,35.0444444 47.7340381,34.96 C46.4103906,34.7066667 44.8385592,34.3688889 44.8385592,32.68 C44.8385592,32.0044444 45.169471,31.3288889 45.7485668,30.9066667 C46.3276626,30.4844444 47.0722143,30.4 47.7340381,30.4 C48.9749576,30.4 50.1331492,30.9066667 50.546789,32.1733333 L48.8095017,32.68 C48.6440457,32.1733333 48.2304059,32.0044444 47.6513101,32.0044444 C47.4031262,32.0044444 46.9894864,32.0888889 46.9894864,32.4266667 C46.9894864,32.7644444 47.4858542,32.8488889 47.7340381,32.9333333 C48.3958618,33.1022222 49.0576856,33.1866667 49.7195093,33.5244444 C50.3813331,33.8622222 50.712245,34.5377778 50.712245,35.2977778 C50.712245,36.9866667 49.0576856,37.6622222 47.6513101,37.6622222 C46.1622067,37.6622222 44.9212871,37.0711111 44.5076473,35.4666667 L46.4931185,35.1288889 Z" fill="#EC1C24"/>
                                    <polygon fill="#0556A4" points="55.841379 30.8222222 57.6613943 30.8222222 57.6613943 33.0177778 59.8123215 33.0177778 59.8123215 34.8755556 57.6613943 34.8755556 57.6613943 37.0711111 55.841379 37.0711111 55.841379 34.8755556 53.6904518 34.8755556 53.6904518 33.0177778 55.841379 33.0177778"/>
                                    <path d="M68.6642142,34.0311111 C68.6642142,36.0577778 67.4232947,37.6622222 65.3550955,37.6622222 C63.2868962,37.6622222 62.0459767,36.0577778 62.0459767,34.0311111 C62.0459767,31.92 63.2868962,30.4 65.3550955,30.4 C67.5060226,30.3155556 68.6642142,31.8355556 68.6642142,34.0311111 Z M64.2796319,34.0311111 C64.2796319,34.7066667 64.3623598,36.0577778 65.3550955,36.0577778 C66.3478311,36.0577778 66.4305591,34.7066667 66.4305591,34.0311111 C66.4305591,33.3555556 66.3478311,31.92 65.3550955,31.92 C64.4450878,31.92 64.2796319,33.2711111 64.2796319,34.0311111 Z" fill="#EC1C24"/>
                                    <path d="M77.3506509,34.96 C77.3506509,35.8044444 77.267923,36.48 76.6060992,36.9866667 C76.0270034,37.4933333 75.2824517,37.5777778 74.5379,37.5777778 C73.8760763,37.5777778 73.0487966,37.4088889 72.5524288,37.0711111 C71.807877,36.5644444 71.6424211,35.8888889 71.6424211,35.0444444 L71.6424211,30.4 L73.7933483,30.4 L73.7933483,34.7911111 C73.7933483,35.0444444 73.7933483,35.3822222 73.9588042,35.5511111 C74.1242602,35.8044444 74.455172,35.8888889 74.7033559,35.8888889 C74.9515399,35.8888889 75.2824517,35.8044444 75.4479077,35.6355556 C75.6960916,35.3822222 75.6960916,35.0444444 75.6960916,34.7066667 L75.6960916,30.4 L77.3506509,30.4 L77.3506509,34.96 Z" fill="#EC1C24"/>
                                    <polygon fill="#EC1C24" points="83.7207046 37.4933333 81.7352333 37.4933333 81.7352333 32.0888889 80.2461299 32.0888889 80.2461299 30.4 85.12708 30.4 85.12708 32.0888889 83.7207046 32.0888889 83.7207046 37.4933333"/>
                                    <path d="M88.1052869,30.4 L90.6698539,30.4 C91.6625896,30.4 92.4898693,30.5688889 93.234421,31.2444444 C93.9789727,31.92 94.3098846,32.9333333 94.3098846,33.9466667 C94.3098846,34.8755556 93.9789727,35.8044444 93.317149,36.48 C92.6553252,37.24 91.7453175,37.4088889 90.8353099,37.4088889 L88.1052869,37.4088889 L88.1052869,30.4 Z M90.587126,35.8888889 C90.8353099,35.8888889 91.0834938,35.8888889 91.3316777,35.8044444 C91.4971336,35.72 91.6625896,35.5511111 91.8280455,35.2977778 C92.0762294,34.8755556 92.1589574,34.3688889 92.1589574,33.9466667 C92.1589574,33.44 91.9935014,32.8488889 91.7453175,32.4266667 C91.4144057,32.0044444 91.0834938,32.0044444 90.587126,32.0044444 L90.3389421,32.0044444 L90.3389421,35.8044444 L90.587126,35.8044444 L90.587126,35.8888889 Z" fill="#EC1C24"/>
                                    <path d="M103.740873,34.0311111 C103.740873,36.0577778 102.499954,37.6622222 100.431754,37.6622222 C98.3635551,37.6622222 97.1226355,36.0577778 97.1226355,34.0311111 C97.1226355,31.92 98.3635551,30.4 100.431754,30.4 C102.499954,30.3155556 103.740873,31.8355556 103.740873,34.0311111 Z M99.3562907,34.0311111 C99.3562907,34.7066667 99.4390187,36.0577778 100.431754,36.0577778 C101.42449,36.0577778 101.507218,34.7066667 101.507218,34.0311111 C101.507218,33.3555556 101.42449,31.92 100.431754,31.92 C99.4390187,31.92 99.3562907,33.2711111 99.3562907,34.0311111 Z" fill="#EC1C24"/>
                                    <path d="M113.171861,34.0311111 C113.171861,36.0577778 111.930942,37.6622222 109.862743,37.6622222 C107.794544,37.6622222 106.553624,36.0577778 106.553624,34.0311111 C106.553624,31.92 107.794544,30.4 109.862743,30.4 C111.930942,30.3155556 113.171861,31.8355556 113.171861,34.0311111 Z M108.787279,34.0311111 C108.787279,34.7066667 108.870007,36.0577778 109.862743,36.0577778 C110.855478,36.0577778 110.938206,34.7066667 110.938206,34.0311111 C110.938206,33.3555556 110.855478,31.92 109.862743,31.92 C108.870007,31.92 108.787279,33.2711111 108.787279,34.0311111 Z" fill="#EC1C24"/>
                                    <path d="M120.038283,37.4933333 L119.045547,34.7911111 L118.383724,34.7911111 L118.383724,37.4933333 L116.232796,37.4933333 L116.232796,30.4 L119.790099,30.4 C120.369195,30.4 121.031019,30.4844444 121.610114,30.8222222 C122.18921,31.16 122.437394,31.8355556 122.437394,32.5111111 C122.437394,33.44 122.023754,34.0311111 121.196474,34.3688889 L122.437394,37.4933333 L120.038283,37.4933333 Z M119.128275,33.2711111 C119.624643,33.2711111 120.121011,33.1866667 120.121011,32.5955556 C120.121011,32.3422222 120.038283,32.0888889 119.790099,32.0044444 C119.624643,31.92 119.376459,31.92 119.211003,31.92 L118.383724,31.92 L118.383724,33.2711111 L119.128275,33.2711111 Z" fill="#EC1C24"/>
                                    <path d="M126.987432,35.1288889 C127.152888,35.72 127.649256,35.9733333 128.228352,35.9733333 C128.476536,35.9733333 129.055632,35.8888889 129.055632,35.5511111 C129.055632,35.1288889 128.476536,35.0444444 128.228352,34.96 C126.904704,34.7066667 125.332873,34.3688889 125.332873,32.68 C125.332873,32.0044444 125.663785,31.3288889 126.242881,30.9066667 C126.821976,30.4844444 127.566528,30.4 128.228352,30.4 C129.469271,30.4 130.627463,30.9066667 131.041103,32.1733333 L129.303815,32.68 C129.138359,32.1733333 128.72472,32.0044444 128.145624,32.0044444 C127.89744,32.0044444 127.4838,32.0888889 127.4838,32.4266667 C127.4838,32.7644444 127.980168,32.8488889 128.228352,32.9333333 C128.890176,33.1022222 129.551999,33.1866667 130.213823,33.5244444 C130.875647,33.8622222 131.206559,34.5377778 131.206559,35.2977778 C131.206559,36.9866667 129.551999,37.6622222 128.145624,37.6622222 C126.65652,37.6622222 125.415601,37.0711111 125.001961,35.4666667 L126.987432,35.1288889 Z" fill="#EC1C24"/>
                                    <path d="M22.9156474,26.3466667 L16.9592336,26.3466667 L15.3874022,21.0266667 L7.28006127,21.0266667 L5.70822986,26.3466667 L0.496367814,26.3466667 L7.77642908,2.53333333 L14.9737624,0.76 L22.9156474,26.3466667 Z M14.0637547,16.3822222 L11.4164597,7.34666667 L8.76916471,16.3822222 L14.0637547,16.3822222 Z" fill="#0556A4"/>
                                    <path d="M36.4830343,13.68 C36.4830343,12.4977778 35.7384826,11.3155556 33.8357393,11.3155556 C30.8575324,11.3155556 30.5266205,14.2711111 30.5266205,16.72 C30.5266205,19 30.5266205,22.3777778 33.6702834,22.3777778 C35.5730266,22.3777778 36.4003063,21.1955556 36.5657623,19.4222222 L41.8603523,19.3377778 C41.4467124,24.0666667 37.9721377,26.8533333 33.4220994,26.8533333 C27.7965976,26.8533333 24.4047508,22.8 24.4047508,17.1422222 C24.4047508,11.3155556 27.8793255,7.09333333 33.7530113,7.09333333 C38.0548657,7.09333333 41.4467124,9.96444444 41.7776243,13.68 L36.4830343,13.68 Z" fill="#0556A4"/>
                                    <path d="M56.006835,26.5155556 C56.006835,25.5866667 56.006835,24.5733333 56.006835,23.56 C54.4350036,25.84 52.8631721,26.8533333 50.0504212,26.8533333 C46.7413024,26.8533333 44.1767354,25.08 44.1767354,21.4488889 C44.1767354,18.6622222 45.9140228,16.72 48.3958618,15.7911111 C50.546789,14.9466667 53.5249959,14.7777778 55.7586511,14.6088889 L55.7586511,14.1866667 C55.7586511,13.3422222 55.841379,12.4133333 55.2622832,11.6533333 C54.7659154,10.9777778 53.8559078,10.7244444 53.0286281,10.7244444 C51.2913407,10.7244444 49.8022373,11.8222222 49.8022373,13.68 L44.8385592,13.5955556 C45.334927,8.52888889 49.7195093,7.09333333 53.6077239,7.09333333 C55.5104672,7.09333333 57.9923062,7.51555556 59.4814097,8.78222222 C61.3841529,10.3866667 61.218697,12.4133333 61.218697,14.7777778 L61.218697,23.6444444 C61.218697,24.6577778 61.218697,25.5866667 61.218697,26.5155556 L56.006835,26.5155556 Z M55.7586511,17.3955556 C53.6904518,17.6488889 49.8849653,18.0711111 49.8849653,20.8577778 C49.8849653,22.3777778 50.7949729,23.3911111 52.2840764,23.3911111 C53.35954,23.3911111 54.3522756,22.8 55.0140993,21.7866667 C55.7586511,20.6044444 55.7586511,19.4222222 55.7586511,18.1555556 L55.7586511,17.3955556 Z" fill="#0556A4"/>
                                    <path d="M76.0270034,26.5155556 L76.0270034,23.56 L75.9442755,23.56 C74.9515399,25.5866667 73.3797084,26.8533333 70.9805973,26.8533333 C65.7687353,26.8533333 64.2796319,21.6177778 64.2796319,17.2266667 C64.2796319,12.6666667 65.6860073,7.09333333 71.1460533,7.09333333 C73.2142525,7.09333333 74.620628,7.76888889 75.7788195,9.45777778 L75.7788195,1.52 L81.1561375,0.253333333 L81.1561375,26.5155556 L76.0270034,26.5155556 Z M75.7788195,15.96 C75.7788195,14.1022222 75.6133636,10.9777778 73.1315245,10.9777778 C70.0705897,10.9777778 69.9051337,15.1155556 69.9051337,17.3955556 C69.9051337,19.4222222 70.2360456,22.9688889 72.8833406,22.9688889 C73.8760763,22.9688889 74.7860839,22.2933333 75.1997238,21.4488889 C75.6133636,20.6044444 75.6960916,19.5911111 75.6960916,18.6622222 L75.6960916,15.96 L75.7788195,15.96 Z" fill="#0556A4"/>
                                    <path d="M89.2634785,17.9022222 L89.2634785,18.8311111 C89.2634785,21.1111111 90.504398,22.8844444 92.9035091,22.8844444 C94.5580685,22.8844444 96.2953558,21.6177778 96.2953558,19.8444444 L101.341762,19.8444444 C101.341762,20.7733333 99.6044746,26.7688889 92.7380532,26.7688889 C87.1952793,26.7688889 83.5552486,22.8 83.5552486,17.1422222 C83.5552486,11.4844444 86.7816394,7.00888889 92.6553252,7.00888889 C95.3026202,7.00888889 97.9499152,8.19111111 99.5217466,10.3866667 C101.093578,12.5822222 101.507218,15.2844444 101.42449,17.8177778 L89.2634785,17.9022222 Z M95.798988,14.6933333 C95.7162601,12.6666667 95.0544363,10.7244444 92.6553252,10.7244444 C90.2562141,10.7244444 89.3462064,12.4977778 89.1807505,14.6933333 L95.798988,14.6933333 Z" fill="#0556A4"/>
                                    <path d="M109.283647,7.00888889 L109.283647,10.3866667 L109.366375,10.3866667 C110.359111,8.10666667 112.096398,7.09333333 114.578237,7.09333333 C117.060076,7.09333333 118.549179,8.10666667 119.707371,10.3866667 C120.700107,8.10666667 122.851034,7.09333333 125.167417,7.09333333 C126.821976,7.09333333 128.641992,7.68444444 129.717455,9.03555556 C130.958375,10.5555556 130.710191,12.6666667 130.710191,14.6088889 L130.710191,26.5155556 L125.332873,26.5155556 L125.332873,16.4666667 C125.332873,15.7066667 125.415601,13.8488889 125.250145,13.0888889 C124.919233,11.9066667 124.091953,11.5688889 122.933762,11.5688889 C121.941026,11.5688889 120.948291,12.16 120.617379,13.0044444 C120.203739,13.9333333 120.286467,15.3688889 120.286467,16.3822222 L120.286467,26.4311111 L114.909149,26.4311111 L114.909149,16.3822222 C114.909149,14.3555556 115.240061,11.4844444 112.510038,11.4844444 C109.697287,11.4844444 109.780015,14.3555556 109.780015,16.3822222 L109.780015,26.4311111 L104.402697,26.4311111 L104.402697,8.19111111 L109.283647,7.00888889 Z" fill="#0556A4"/>
                                    <path d="M143.615754,25.3333333 C142.209379,29.64 141.464827,34.6222222 136.170237,34.6222222 L133.522942,34.6222222 L133.60567,30.6533333 L136.252965,30.6533333 C138.07298,30.6533333 138.734804,28.2888889 139.231172,26.5155556 L132.447478,7.51555556 L137.742068,7.51555556 L141.299371,18.8311111 L144.856674,7.51555556 L149.323984,7.51555556 L143.615754,25.3333333 Z" fill="#0556A4"/>
                                </g>
                                <g fill-rule="nonzero" id="Shape">
                                    <path d="M40.1381093,13.8488889 C45.5397182,21.6177778 43.4621763,29.3022222 34.9027037,31.0755556 C28.7531797,32.3422222 23.9332826,31.4133333 18.448572,29.2177778 C23.1022658,30.9066667 27.3404513,31.2444444 31.495535,30.5688889 C39.8057026,29.3022222 41.9663462,22.4622222 35.8999238,15.2 C30.4983149,8.69777778 19.4457921,4.98222222 11.2187262,6.33333333 C2.57615194,7.68444444 0.166203351,14.7777778 5.15230388,21.28 C5.98332064,22.3777778 6.64813404,23.1377778 7.72845583,23.9822222 C6.31572734,22.8 5.06920221,21.5333333 4.15508378,20.1822222 C-1.32962681,12.3288889 1.82823686,4.22222222 12.6314547,2.36444444 C21.9388423,0.844444444 34.570297,5.82666667 40.1381093,13.8488889 Z" fill="#EC1C24"/>
                                    <path d="M19.1964871,7.26222222 C19.1964871,7.26222222 25.8446211,7.85333333 31.495535,11.2311111 L32.5758568,30.3155556 C32.5758568,30.3155556 27.922163,31.2444444 25.4291127,30.7377778 L25.2629094,26.2622222 L14.8751999,27.2755556 L8.89187928,36.3955556 L0.415508378,37.5777778 L19.1964871,7.26222222 Z M17.9499619,21.7866667 L25.0136043,20.9422222 L24.6811976,10.8088889 L17.9499619,21.7866667 Z" fill="#0556A4"/>
                                    <path d="M22.4374524,2.87111111 C22.4374524,2.87111111 27.672858,4.13777778 31.24623,6.16444444 L30.9138233,0.253333333 L22.4374524,2.87111111 Z" fill="#0256A4"/>
                                </g>
                                <path d="M200.487624,7.18918919 C201.873762,7.18918919 203,8.34016775 203,9.75675676 C203,11.2618826 201.873762,12.3243243 200.487624,12.3243243 C199.101485,12.3243243 197.975248,11.1733458 197.975248,9.75675676 C197.975248,8.42870457 199.101485,7.18918919 200.487624,7.18918919 Z M200.487624,7.63187325 C199.361386,7.63187325 198.49505,8.60577819 198.49505,9.84529357 C198.49505,11.0848089 199.44802,12.0587139 200.574257,12.0587139 C201.700495,12.0587139 202.566832,11.0848089 202.566832,9.84529357 C202.566832,8.60577819 201.613861,7.63187325 200.487624,7.63187325 Z M199.967822,11.3504194 L199.534653,11.3504194 L199.534653,8.42870457 C199.794554,8.42870457 199.967822,8.34016775 200.314356,8.34016775 C200.747525,8.34016775 201.007426,8.42870457 201.180693,8.51724138 C201.35396,8.60577819 201.440594,8.87138863 201.440594,9.13699907 C201.440594,9.49114632 201.180693,9.75675676 200.920792,9.84529357 C201.180693,9.93383038 201.35396,10.110904 201.35396,10.5535881 C201.440594,10.9962721 201.527228,11.1733458 201.527228,11.2618826 L201.094059,11.2618826 C201.007426,11.1733458 200.920792,10.9077353 200.920792,10.5535881 C200.834158,10.1994408 200.660891,10.0223672 200.314356,10.0223672 L199.967822,10.0223672 L199.967822,11.3504194 Z M199.967822,9.75675676 L200.314356,9.75675676 C200.660891,9.75675676 201.007426,9.57968313 201.007426,9.22553588 C201.007426,8.95992544 200.834158,8.694315 200.314356,8.694315 C200.141089,8.694315 200.054455,8.694315 199.967822,8.694315 L199.967822,9.75675676 Z" id="Shape" fill="#0556A4" fill-rule="nonzero"/>
                            </g>
                        </g>
                    </g>
                </g>
            </g>
        </g>
    </g>
</svg>
