<?xml version="1.0" encoding="utf-8"?>
<!-- Generator: Adobe Illustrator 20.0.0, SVG Export Plug-In . SVG Version: 6.00 Build 0)  -->
<svg version="1.1" id="Layer_1" xmlns="http://www.w3.org/2000/svg" xmlns:xlink="http://www.w3.org/1999/xlink" x="0px" y="0px"
	 viewBox="0 0 500 500" style="enable-background:new 0 0 500 500;" xml:space="preserve">
<style type="text/css">
	.st0{fill:#0B57A7;stroke:#0F58A6;stroke-width:6;stroke-miterlimit:10;}
</style>
<path class="st0" d="M202.5,360.4c-13.4-1.6-25.6-5.3-35.9-13.8c-12.5-10.2-18.2-23.6-18.4-39.5c-0.1-4.7,3-8,7.4-8.4
	c4.1-0.4,7.8,2.6,8.5,7.3c0.6,3.8,0.7,7.8,1.6,11.5c2.8,10.9,10.1,18.2,20.3,22.2c17.7,7,35.6,7.1,52.9-1.2
	c19.4-9.3,26.4-37,12.9-52.8c-4.5-5.3-10.8-9.5-17-12.8c-18.1-9.7-36.7-18.4-54.8-28.2c-7-3.8-13.7-8.5-19.5-14
	c-11.6-11-13.8-25.6-12.1-40.7c3-27,23-41.7,45.3-46.2c2.8-0.6,5.6-1,8.7-1.6c0-6.1,0-12,0-17.9c0-5.9,3.3-9.6,8.3-9.5
	c4.9,0.1,8,3.7,8,9.4c0,5.9,0,11.8,0,17.2c7.4,2,14.5,3.3,21.3,5.8c20.7,7.7,33.1,25.6,33.7,47.6c0.2,5.5-3.1,9.5-7.8,9.7
	c-4.5,0.2-8.4-3.5-8.4-8.7c-0.3-22.3-15.5-32.5-30.8-35.8c-14.3-3.1-28.4-2.5-41.9,3.7c-12.9,5.9-19.5,16.2-20.5,30.4
	c-1.1,15.1,4.8,26.2,18,33.2c15.1,8.1,30.6,15.5,45.7,23.6c9.3,4.9,18.6,9.9,27.3,15.8c15.8,10.8,20.4,26.9,18.8,45.2
	c-2.2,25.7-20.9,42.5-46.7,47.3c-2.8,0.5-6.8,0.1-8.1,1.8c-1.5,2-0.6,5.7-0.6,8.7c-0.1,3.4,0.1,6.8,0,10.2c-0.2,5-3.7,8.4-8.3,8.3
	c-4.5-0.1-7.8-3.4-7.9-8.3C202.4,373.4,202.5,366.9,202.5,360.4z"/>
<path class="st0" d="M392.7,234.3c0.6,6.1,0.9,12.4,0.9,18.6c-0.3,102-82.8,184.3-184.5,184C107.1,436.6,25,354.4,25,252.6
	c0.1-101.9,82.3-184.1,184.2-184.2c36.6,0,70.7,10.6,99.4,29c2.6-4.8,5.5-9.3,8.8-13.5C276.6,57.2,230.9,47.4,181.2,54
	c-40.2,5.4-75.5,22.1-105.6,49.2C42,133.6,20.6,171,12.3,215.6c-1.4,7.5-2.2,15.1-3.1,22.7c-0.8,11.8-0.7,29.5,3.1,51.4
	c8.5,45.3,30.3,83.1,64.7,113.5c22.5,20,48,33.8,76,42c32.4,8,57.2,8.3,71.4,7.3c8.6-1.2,17.4-1.8,25.9-3.6
	c44.9-9.5,82.4-31.7,111.9-66.8c36.6-43.6,52.3-93.8,46.5-149.6C403.5,233.6,398.2,234.2,392.7,234.3z"/>
<g>
	<path class="st0" d="M407,217.1c-46.9,0-85-38.1-85-85s38.1-85,85-85s85,38.1,85,85S453.9,217.1,407,217.1z M407,60.1
		c-39.7,0-72,32.3-72,72s32.3,72,72,72s72-32.3,72-72S446.7,60.1,407,60.1z"/>
</g>
<path class="st0" d="M393.9,146.6c2.7-2.8,5.3-5.5,8-8.2c6.6-6.6,13.2-13.3,19.9-19.9c4.5-4.5,9.1-9,13.6-13.6c3-3,7.1-3.6,10-1.3
	c3.7,3,4,7.6,0.7,11.1c-3,3.1-6.1,6.1-9.2,9.2c-12.4,12.4-24.9,24.9-37.3,37.4c-3.5,3.5-7.8,3.8-11.3,0.3
	c-6.8-6.7-13.6-13.5-20.3-20.3c-3.1-3.2-2.8-7.8,0.7-10.7c2.4-2,6.6-2.2,8.9,0c5.1,4.8,10,9.8,15,14.8
	C392.9,145.7,393.3,146,393.9,146.6z"/>
</svg>
