<?xml version="1.0" encoding="utf-8"?>
<!-- Generator: Adobe Illustrator 20.0.0, SVG Export Plug-In . SVG Version: 6.00 Build 0)  -->
<svg version="1.1" id="Layer_1" xmlns="http://www.w3.org/2000/svg" xmlns:xlink="http://www.w3.org/1999/xlink" x="0px" y="0px"
	 viewBox="0 0 500 500" style="enable-background:new 0 0 500 500;" xml:space="preserve">
<style type="text/css">
	.st0{fill:#0B57A7;stroke:#0F58A6;stroke-width:6;stroke-miterlimit:10;}
</style>
<path class="st0" d="M450,378.4c-34.1,0-67.4,0-100.8,0c-95.8,0-191.6,0-287.5,0c-1.3,0-2.7,0.1-4,0c-4.8-0.3-7.8-3.5-7.7-8
	c0-4.5,3.1-7.8,7.9-7.9c10.2-0.1,20.3-0.1,30.5-0.1c114,0,228,0,342,0c1,0,2,0,3.4,0c0.1-1.7,0.3-3.1,0.3-4.5c0-74.3,0-148.7,0-223
	c0-1.5,0-3,0-4.5c0.3-5,3.5-8.1,8.3-8c4.5,0.1,7.6,3.2,7.6,8.1c0.1,15.7,0.1,31.3,0.1,47c0,65.3,0,130.7,0,196
	C450,375,450,376.5,450,378.4z"/>
<path class="st0" d="M476,404.4c0-23.2,0-45.7,0-68.2c0-54,0-108,0-162c0-6.4,2.8-9.8,7.9-9.9c5.2,0,8.1,3.4,8.1,9.8
	c0,68.2,0,136.3,0,204.5c0,13.7,0,27.3,0,41.4c-1.6,0.1-3,0.3-4.4,0.3c-128.6,0-257.3,0-385.9,0c-4,0-7.3-1-9-4.8
	c-2.5-5.6,1.6-11.1,8.4-11.1c22-0.1,44,0,66,0c101.5,0,203,0,304.5,0C472.8,404.4,474.1,404.4,476,404.4z"/>
<path class="st0" d="M317.5,154.4c-7.5,0-15,0-22.5,0c-5.7,0-9.1-3.2-9-8.3c0.1-4.8,3.4-7.7,9-7.7c15.3,0,30.6,0,45.9,0
	c5.9,0,9.2,3.1,9,8.2c-0.1,4.8-3.4,7.7-9,7.7C333.1,154.4,325.3,154.4,317.5,154.4C317.5,154.4,317.5,154.4,317.5,154.4z"/>
<path class="st0" d="M98,278.4c-7.8,0-15.6,0.1-23.4,0c-5.4-0.1-8.7-3.3-8.5-8.2c0.1-4.6,3.3-7.7,8.5-7.7c15.6-0.1,31.3-0.1,46.9,0
	c5.4,0,8.7,3.3,8.5,8.2c-0.1,4.6-3.4,7.7-8.5,7.7C113.6,278.5,105.8,278.4,98,278.4z"/>
<path class="st0" d="M397.7,80.8c-127.7,0-255.1,0-382.4,0c-2.5,0.2-7,1.2-6.9,6.5c0,79.3,0,158.2,0,237.1c0,1.1,0.4,11.7,12.3,11.7
	c129.2,0,258,0,387,0c0-82.8,0-165.4,0-248.2C407.6,85.7,406.3,80.7,397.7,80.8z M391.8,320.2c-122.5,0-244.8,0-367.4,0
	c0-74.3,0-148.7,0-223.4c122.2,0,244.6,0,367.4,0C391.8,171.4,391.8,245.7,391.8,320.2z"/>
</svg>
