<?xml version="1.0" encoding="utf-8"?>
<!-- Generator: Adobe Illustrator 20.0.0, SVG Export Plug-In . SVG Version: 6.00 Build 0)  -->
<svg version="1.1" id="Layer_1" xmlns="http://www.w3.org/2000/svg" xmlns:xlink="http://www.w3.org/1999/xlink" x="0px" y="0px"
	 viewBox="0 0 500 500" style="enable-background:new 0 0 500 500;" xml:space="preserve">
<style type="text/css">
	.st0{fill:#0B57A7;stroke:#0F58A6;stroke-width:7;stroke-miterlimit:10;}
</style>
<path class="st0" d="M92.2,337.2c-6.1,0-12.3,0-18.4,0c-5.9,0-9.5-3-9.6-7.8c-0.1-4.8,3.6-8,9.3-8.1c12.6,0,25.2,0,37.9,0
	c5.8,0,9.4,3.2,9.3,8c-0.1,4.7-3.8,7.8-9.6,7.8C104.8,337.2,98.5,337.2,92.2,337.2z"/>
<path class="st0" d="M106.4,89.6c0-7.9,0-15.8,0-23.7c5.9,0,11.8,0,17.7,0v0c12.8,0,25.8,0,39,0v0c12.8,0,25.7,0,38.9,0
	c0,8,0,15.9,0,23.7H218c0-10,0-20,0-30c0-7.4-2.6-10-9.8-10c-15.6,0-31.2,0-46.8,0v0c-12.1,0-24.3,0-36.4,0v0c-8.3,0-16.6,0-24.9,0
	c-7.6,0-10.1,2.5-10.1,10.2c0,9.9,0,19.8,0,29.8H106.4z"/>
<path class="st0" d="M488.7,183.7c-3.7-18.3-13.6-32.8-28.3-44.2c-12.3-9.5-26.1-16.2-42.1-16.2c-99.2-0.1-198.3,0-297.5,0
	c-4.8,0-9.6,0-14.5,0c0-5.6,0-10.7,0-16.1c6,0,11.9,0,17.8,0v0c12.6,0,25,0,37.4,0v0c15.7,0,31.2,0,46.6,0c7.3,0,9.9-2.6,9.9-9.9
	c0-4.5,0-9.1,0-13.6h-16.1c0,2.4,0,4.9,0,7.3c-13.5,0-26.9,0-40.4,0v0c-12.1,0-24.2,0-36.4,0v0c-6.2,0-12.4,0-18.7,0
	c0-2.4,0-4.9,0-7.3H90.1c0,11.3,0,22.6,0,33.8c0,1.8,0,3.6,0,5.7c-5.4,0-10.1,0.1-14.9,0c-15.8-0.2-29.4,5.4-40.7,16.2
	c-15.9,15.3-24.2,34.2-24.3,56.2c-0.2,57.7-0.1,115.3-0.1,173c0,8.2,2.4,10.5,10.8,10.5c78.7,0,157.3,0,236,0c2.9,0,5.7,0,9,0
	l16.1,0c0,0,0,0,0,0c2.3,0,4.2,0,6.1,0c63.1,0,126.2,0,189.4,0.1c5.1,0,9.6-0.4,12.6-5c0-54.1,0-108.1,0-162.2
	C490,196,489.3,187.8,488.7,183.7z M138.1,353.3c0,3.1,0,6.3,0,9.8c-37.7,0-74.6,0-112.1,0c0-1.5,0-2.8,0-4.1c0-53.7,0-107.3,0-161
	c0-12,2.2-23.5,8.1-34.1c10.1-18.1,26.9-26.3,47.5-24.4c27.1,2.5,43.8,17.2,52.2,42.4c2.9,8.8,4.4,17.6,4.4,26.9
	C138,256.9,138.1,305.1,138.1,353.3z M474.1,341.3c0,7.1,0,14.2,0,21.7c-104.1,0-207.5,0-311.1,0c-2.9,0-5.8,0-8.7,0H154v-5.1
	c0,0,0,0,0,0c0-0.3,0-0.6,0-0.9v-6.6l0,0c0-48.6,0.1-97.3-0.1-145.9c-0.1-23.7-9.6-43.8-25.5-61.1c-1-1.1-2.1-2.1-3.2-3.2
	c-0.1-0.1-0.1-0.3-0.2-0.9c1.3-0.1,2.5-0.2,3.8-0.2c95.6,0,191.2,0,286.9,0c32,0,58.3,26.2,58.3,58.1
	C474.2,245.3,474.1,293.3,474.1,341.3z"/>
<path class="st0" d="M248.9,378.3H233c0,18.2,0,36.5-0.1,54.7h0v9.4c0,4.4,3.6,8,8,8c4.4,0,8-3.6,8-8v-9.4h0
	C248.9,414.7,248.9,396.5,248.9,378.3z"/>
<path class="st0" d="M309.6,439c0-0.1,0-0.2,0-0.4c0-0.5,0-1,0-1.5v-4.3h0c-0.1-18.2-0.1-36.4-0.1-54.7h-15.9
	c0,18.2,0,36.4-0.1,54.7h0v9.4c0,4.4,3.6,8,8,8c4.4,0,8-3.6,8-8c0,0,0-0.1,0-0.1V439z"/>
</svg>
