<svg xmlns="http://www.w3.org/2000/svg" xmlns:xlink="http://www.w3.org/1999/xlink" width="24" height="24" viewBox="0 0 24 24">
    <defs>
        <path id="a" d="M23.998 3.864c0 .004.003.006.003.01v13.103a.711.711 0 0 1-.44.657l-9 3.735c-.008.005-.018.003-.028.006a.73.73 0 0 1-.244.049.73.73 0 0 1-.244-.049c-.01-.003-.02-.002-.03-.006l-9-3.735a.712.712 0 0 1-.438-.657v-1.363H6v.889l7.576 3.143V8.083L6 4.94v1.758H4.577V3.873l.003-.01-.002-.011a.704.704 0 0 1 .103-.335.7.7 0 0 1 .206-.228c.003-.002.003-.006.006-.008.007-.004.015-.002.022-.008.044-.026.088-.054.139-.073l9-3.16a.702.702 0 0 1 .47 0l9 3.16a.684.684 0 0 1 .139.075c.007.004.015.002.02.006.004.002.005.006.008.008a.7.7 0 0 1 .234.28.704.704 0 0 1 .075.283l-.002.012zm-1.421 12.639V4.939L15 8.084v11.563l7.576-3.144zm-8.288-9.665l7.01-2.91-7.01-2.462-7.011 2.462 7.01 2.91zm-5.563.729a.727.727 0 0 1 0 1.45h-8a.726.726 0 0 1 0-1.45h8zm.047 2.91a.679.679 0 0 1 0 1.358h-7a.678.678 0 1 1 0-1.357h7zm-.044 2.814a.723.723 0 0 1 0 1.445h-6a.723.723 0 1 1 0-1.445h6z"/>
    </defs>
    <g fill="none" fill-rule="evenodd" transform="translate(0 1)">
        <mask id="b" fill="#fff">
            <use xlink:href="#a"/>
        </mask>
        <use fill="#231F20" xlink:href="#a"/>
        <g fill="#0B1" mask="url(#b)">
            <path d="M-13-14h50v50h-50z"/>
        </g>
    </g>
</svg>
