<svg xmlns="http://www.w3.org/2000/svg" xmlns:xlink="http://www.w3.org/1999/xlink" width="24" height="24" viewBox="0 0 24 24">
    <defs>
        <path id="a" d="M20.812 18.494h-1.69v-7.823c0-.925-.743-1.677-1.656-1.677H6.646c-.913 0-1.655.752-1.655 1.677v7.823H3.174c-.128 0-.232-.113-.232-.25V6.93h18.101v11.314c0 .137-.103.25-.23.25zm-9.568 0H6.491v-7.823c0-.094.07-.171.154-.171h4.6v7.994zm6.377 0h-4.877V10.5h4.722c.086 0 .155.077.155.171v7.823zM2.857 1.825a.492.492 0 0 1 .452-.319H20.69c.2 0 .378.126.453.32l1.345 3.576c-.015.022-.029.022-.036.022L1.504 5.335l1.353-3.51zm21.036 2.966l-1.352-3.51A1.976 1.976 0 0 0 20.691 0H3.308a2 2 0 0 0-1.85 1.282L.106 4.79a1.58 1.58 0 0 0 .167 1.462c.268.394.7.631 1.168.664v11.328c0 .968.777 1.756 1.732 1.756h17.638c.955 0 1.732-.788 1.732-1.756V6.918c.472-.029.91-.267 1.181-.664.292-.429.357-.976.168-1.463z"/>
    </defs>
    <g fill="none" fill-rule="evenodd" transform="translate(0 2)">
        <mask id="b" fill="#fff">
            <use xlink:href="#a"/>
        </mask>
        <use fill="#231F20" xlink:href="#a"/>
        <g fill="#0B1" mask="url(#b)">
            <path d="M-13-15h50v50h-50z"/>
        </g>
    </g>
</svg>
