<?xml version="1.0" encoding="UTF-8"?>
<svg width="160px" height="160px" viewBox="0 0 160 160" version="1.1" xmlns="http://www.w3.org/2000/svg" xmlns:xlink="http://www.w3.org/1999/xlink">
    <!-- Generator: Sketch 50.2 (55047) - http://www.bohemiancoding.com/sketch -->
    <title>Icon/UI/Video/Outlined</title>
    <desc>Created with Sketch.</desc>
    <defs>
        <path d="M61.5777973,37.8267406 L122.085709,79.1978208 C122.541615,79.5095379 122.658504,80.1318199 122.346787,80.5877266 C122.276718,80.6902071 122.188179,80.7787446 122.085698,80.8488123 L61.5792769,122.217713 C61.1233662,122.529424 60.5010857,122.412527 60.1893746,121.956616 C60.075699,121.790354 60.0148776,121.59364 60.014874,121.392231 L60.0133836,38.6522507 C60.0133736,38.0999659 60.4610808,37.6522426 61.0133656,37.6522326 C61.2147908,37.652229 61.4115223,37.7130534 61.5777973,37.8267406 Z M80,149.333333 C41.7706667,149.333333 10.6666667,118.229333 10.6666667,80 C10.6666667,41.7706667 41.7706667,10.6666667 80,10.6666667 C118.229333,10.6666667 149.333333,41.7706667 149.333333,80 C149.333333,118.229333 118.229333,149.333333 80,149.333333 M80,0 C35.8186667,0 0,35.8186667 0,80 C0,124.181333 35.8186667,160 80,160 C124.192,160 160,124.181333 160,80 C160,35.8186667 124.192,0 80,0" id="path-1"></path>
    </defs>
    <g id="Page-1" stroke="none" stroke-width="1" fill="none" fill-rule="evenodd">
        <g id="Icon/UI/Video/Outlined">
            <g id="color/gray">
                <mask id="mask-2" fill="white">
                    <use xlink:href="#path-1"></use>
                </mask>
                <use id="Mask" fill="#585858" xlink:href="#path-1"></use>
                <g id="color/white/white" mask="url(#mask-2)" fill="#FFFFFF">
                    <g transform="translate(-86.666667, -86.666667)" id="BG">
                        <rect x="0" y="0" width="333" height="333"></rect>
                    </g>
                </g>
            </g>
        </g>
    </g>
</svg>